<svg xmlns="http://www.w3.org/2000/svg" xmlns:xlink="http://www.w3.org/1999/xlink" width="324.731" height="76.307" viewBox="0 0 324.731 76.307"><defs><style>.a{fill:url(#a);}.b{fill:url(#b);}.c{fill:url(#c);}.d{fill:url(#d);}.e{fill:url(#e);}.f{fill:url(#f);}.g{fill-rule:evenodd;}</style><linearGradient id="a" x1="0.5" y1="1" x2="0.5" gradientUnits="objectBoundingBox"><stop offset="0.358" stop-color="#0591a9"/><stop offset="0.58" stop-color="#0e7591"/><stop offset="0.843" stop-color="#185b7b"/><stop offset="1" stop-color="#1c5273"/></linearGradient><linearGradient id="b" x1="0.5" y1="1" x2="0.5" gradientUnits="objectBoundingBox"><stop offset="0.29" stop-color="#e58f37"/><stop offset="0.754" stop-color="#cf6642"/></linearGradient><linearGradient id="c" x1="0.5" y1="1" x2="0.5" gradientUnits="objectBoundingBox"><stop offset="0.347" stop-color="#68b996"/><stop offset="0.501" stop-color="#52a386"/><stop offset="0.831" stop-color="#277869"/><stop offset="1" stop-color="#17685e"/></linearGradient><linearGradient id="d" y1="0.5" x2="1.535" y2="0.5" gradientUnits="objectBoundingBox"><stop offset="0" stop-color="#68b996"/><stop offset="0.207" stop-color="#5dae8e"/><stop offset="0.566" stop-color="#41927b"/><stop offset="1" stop-color="#17685e"/></linearGradient><linearGradient id="e" y1="0.5" x2="1.781" y2="0.5" gradientUnits="objectBoundingBox"><stop offset="0.001" stop-color="#e58f37"/><stop offset="1" stop-color="#cf6642"/></linearGradient><linearGradient id="f" x1="-0.672" y1="0.5" x2="1.051" y2="0.5" gradientUnits="objectBoundingBox"><stop offset="0" stop-color="#1c5273"/><stop offset="0.596" stop-color="#0d7a95"/><stop offset="1" stop-color="#0591a9"/></linearGradient></defs><g transform="translate(-130.355 -415.03)"><g transform="translate(130.355 415.03)"><path class="a" d="M222.676,462.611a5.753,5.753,0,0,1,1.323,3.68v20.424a3.406,3.406,0,0,1-1.536,2.659l-12.292,7.1a2.043,2.043,0,0,0-.921,1.6v6c0,.585.415.825.921.532l18.385-10.615a5.449,5.449,0,0,0,2.457-4.255V470.273a5.45,5.45,0,0,0-2.457-4.255Z" transform="translate(-175.372 -442.179)"/><path class="b" d="M186.978,479.207a4.464,4.464,0,0,0-1.027,2.856V492.35a2.643,2.643,0,0,0,1.191,2.064l5.415,3.126a1.586,1.586,0,0,1,.715,1.238v3.762c0,.454-.322.639-.715.413l-9.387-5.42a4.229,4.229,0,0,1-1.906-3.3v-9.523a4.229,4.229,0,0,1,1.906-3.3Z" transform="translate(-159.403 -451.649)"/><path class="c" d="M141.817,442.147a8.954,8.954,0,0,0-2.059,5.729v31.819a5.3,5.3,0,0,0,2.39,4.14L162.8,495.757a3.181,3.181,0,0,1,1.434,2.484v7.546c0,.911-.645,1.284-1.434.828l-28.619-16.524a8.484,8.484,0,0,1-3.824-6.623V453.181a8.484,8.484,0,0,1,3.824-6.624Z" transform="translate(-130.355 -430.503)"/><path class="d" d="M130.355,446.528a8.952,8.952,0,0,1,3.932-4.648l27.556-15.91a5.3,5.3,0,0,1,4.78,0l20.651,11.923a3.18,3.18,0,0,0,2.868,0l6.535-3.773a.875.875,0,0,0,0-1.656l-28.619-16.523a8.484,8.484,0,0,0-7.648,0l-26.229,15.143a8.485,8.485,0,0,0-3.824,6.624Z" transform="translate(-130.355 -415.03)"/><path class="e" d="M181.264,485.184a4.461,4.461,0,0,1,1.96-2.317l8.908-5.143a2.643,2.643,0,0,1,2.383,0l5.415,3.126a1.584,1.584,0,0,0,1.43,0l3.258-1.881a.436.436,0,0,0,0-.825l-9.388-5.42a4.227,4.227,0,0,0-3.812,0l-8.247,4.761a4.229,4.229,0,0,0-1.906,3.3Z" transform="translate(-159.403 -447.691)"/><path class="f" d="M202.824,467.89A5.751,5.751,0,0,0,200.3,464.9l-17.688-10.212a3.406,3.406,0,0,0-3.07,0l-12.292,7.1a2.043,2.043,0,0,1-1.842,0l-5.195-3a.562.562,0,0,1,0-1.064l18.384-10.615a5.452,5.452,0,0,1,4.913,0l16.849,9.728a5.45,5.45,0,0,1,2.457,4.255Z" transform="translate(-147.173 -433.001)"/></g><g transform="translate(196.441 444.008)"><g transform="translate(0 22.66)"><path d="M284.254,545.183a1.309,1.309,0,0,1,1.291-1.46,1.284,1.284,0,0,1,1.348,1.217,1.58,1.58,0,0,1-.169.748,3.433,3.433,0,0,0,1.946.524c1.347,0,2.208-.6,2.208-1.665,0-1.011-1.029-1.5-2.264-1.928-2.283-.824-3.893-1.553-3.893-3.836,0-1.965,1.591-3.5,4.079-3.5,2.3,0,4.08,1.179,4.08,2.657a1.247,1.247,0,0,1-1.254,1.385,1.277,1.277,0,0,1-1.347-1.254,1.105,1.105,0,0,1,.131-.58,3.1,3.1,0,0,0-1.628-.374c-1.216,0-1.928.617-1.928,1.516,0,1.01,1.029,1.46,2.264,1.909,2.208.786,3.874,1.553,3.874,3.836,0,2.339-1.815,3.668-4.341,3.668C286.219,548.046,284.254,546.68,284.254,545.183Z" transform="translate(-284.254 -535.283)"/><path d="M308.307,546.23h1.4V537.7h-1.4v-1.89h5.053v1.89h-1.535v3.256h5.689V537.7H315.98v-1.89h5.052v1.89h-1.4v8.534h1.4v1.89H315.98v-1.89h1.535V542.8h-5.689v3.425h1.535v1.89h-5.053Z" transform="translate(-297.978 -535.581)"/><path d="M340.116,546.23h1.067l3.069-8.553H342.9v-1.871h6.961v1.871h-1.347l3.069,8.553h1.067v1.89H347.92v-1.871h1.422l-.692-2.021h-4.6l-.692,2.021h1.5v1.871h-4.735Zm7.954-3.762-1.722-4.847-1.722,4.847Z" transform="translate(-316.128 -535.581)"/><path d="M371.49,546.23h1.4V537.7h-1.4v-1.89h4.772c2.826,0,4.847,1.216,4.847,3.724a3.567,3.567,0,0,1-2.321,3.35l1.89,3.35h1.4v1.89h-2.844l-2.47-4.678c-.262.019-.505.037-.749.037-.393,0-.749,0-1.01-.018v2.77h1.535v1.89H371.49Zm7.429-6.625c0-1.291-1.067-1.909-2.769-1.909h-1.142v3.948c.225.019.524.038,1.2.038C377.8,541.682,378.919,540.9,378.919,539.6Z" transform="translate(-334.03 -535.581)"/><path d="M398.07,545.238a1.439,1.439,0,0,1,1.4-1.609,1.254,1.254,0,0,1,1.254,1.254,1.268,1.268,0,0,1-.431.936,1.8,1.8,0,0,0,1.628.617,1.735,1.735,0,0,0,1.254-.43,2.638,2.638,0,0,0,.58-1.947V537.7h-1.853v-1.89h5.259v1.89h-1.347v6.363a4.52,4.52,0,0,1-1.1,3.257,3.815,3.815,0,0,1-2.788,1.029C399.792,548.344,398.07,546.978,398.07,545.238Z" transform="translate(-349.196 -535.581)"/><path d="M419.726,546.23h1.067l3.069-8.553h-1.347v-1.871h6.961v1.871h-1.347l3.069,8.553h1.066v1.89H427.53v-1.871h1.422l-.692-2.021h-4.6l-.692,2.021h1.5v1.871h-4.735Zm7.954-3.762-1.721-4.847-1.722,4.847Z" transform="translate(-361.553 -535.581)"/><path d="M451.1,546.23h1.4V537.7h-1.4v-1.89h5.052v1.89h-1.535v3.256h5.689V537.7h-1.534v-1.89h5.053v1.89h-1.4v8.534h1.4v1.89h-5.053v-1.89h1.534V542.8h-5.689v3.425h1.535v1.89H451.1Z" transform="translate(-379.454 -535.581)"/><path d="M493.671,545.183a1.309,1.309,0,0,1,1.291-1.46,1.283,1.283,0,0,1,1.347,1.217,1.58,1.58,0,0,1-.168.748,3.432,3.432,0,0,0,1.946.524c1.347,0,2.208-.6,2.208-1.665,0-1.011-1.029-1.5-2.264-1.928-2.283-.824-3.893-1.553-3.893-3.836,0-1.965,1.591-3.5,4.079-3.5,2.3,0,4.08,1.179,4.08,2.657a1.247,1.247,0,0,1-1.254,1.385,1.277,1.277,0,0,1-1.348-1.254,1.106,1.106,0,0,1,.131-.58,3.1,3.1,0,0,0-1.628-.374c-1.216,0-1.928.617-1.928,1.516,0,1.01,1.029,1.46,2.264,1.909,2.208.786,3.874,1.553,3.874,3.836,0,2.339-1.815,3.668-4.341,3.668C495.636,548.046,493.671,546.68,493.671,545.183Z" transform="translate(-403.745 -535.283)"/><path d="M518.418,543.628V537.7h-1.347v-1.89h4.94v1.89h-1.478v5.82c0,1.89.954,2.9,2.526,2.9,1.591,0,2.545-.917,2.545-2.826V537.7h-1.478v-1.89h4.884v1.89h-1.347v5.895c0,3.219-1.89,4.753-4.6,4.753C520.308,548.344,518.418,546.81,518.418,543.628Z" transform="translate(-417.097 -535.581)"/><path d="M547.18,545.183a1.308,1.308,0,0,1,1.291-1.46,1.284,1.284,0,0,1,1.348,1.217,1.575,1.575,0,0,1-.169.748,3.433,3.433,0,0,0,1.946.524c1.348,0,2.208-.6,2.208-1.665,0-1.011-1.029-1.5-2.264-1.928-2.283-.824-3.893-1.553-3.893-3.836,0-1.965,1.591-3.5,4.08-3.5,2.3,0,4.079,1.179,4.079,2.657a1.247,1.247,0,0,1-1.254,1.385,1.277,1.277,0,0,1-1.348-1.254,1.1,1.1,0,0,1,.131-.58,3.106,3.106,0,0,0-1.628-.374c-1.216,0-1.928.617-1.928,1.516,0,1.01,1.029,1.46,2.265,1.909,2.208.786,3.873,1.553,3.873,3.836,0,2.339-1.815,3.668-4.341,3.668C549.145,548.046,547.18,546.68,547.18,545.183Z" transform="translate(-434.276 -535.283)"/><path d="M572.72,546.23h1.534v-8.59h-2.283v1.947h-2v-3.78h10.685v3.78h-2V537.64h-2.283v8.59H577.9v1.89H572.72Z" transform="translate(-447.28 -535.581)"/><path d="M594.283,546.23h1.067l3.069-8.553h-1.347v-1.871h6.962v1.871h-1.348l3.069,8.553h1.067v1.89h-4.734v-1.871h1.422l-.692-2.021h-4.6l-.693,2.021h1.5v1.871h-4.734Zm7.953-3.762-1.722-4.847-1.722,4.847Z" transform="translate(-461.153 -535.581)"/><path d="M625.656,546.23h1.5V537.7h-1.5v-1.89h5.109v1.89h-1.5v8.534h1.5v1.89h-5.109Z" transform="translate(-479.054 -535.581)"/><path d="M644.238,539.623v6.606h1.535v1.89h-5v-1.89h1.4V537.7h-1.4v-1.89h3.2l6.063,7.729V537.7h-1.534v-1.89h4.94v1.89H652.1v10.443l-1.142.037Z" transform="translate(-487.681 -535.581)"/><path d="M672.106,546.23h1.067l3.069-8.553h-1.348v-1.871h6.962v1.871h-1.348l3.069,8.553h1.067v1.89H679.91v-1.871h1.422l-.692-2.021h-4.6l-.693,2.021h1.5v1.871h-4.735Zm7.953-3.762-1.721-4.847-1.722,4.847Z" transform="translate(-505.558 -535.581)"/><path d="M703.479,546.23h1.4V537.7h-1.4v-1.89H708.4c3.013,0,4.491,1.385,4.491,3.237a2.819,2.819,0,0,1-2.1,2.751c1.534.449,2.451,1.348,2.451,2.882,0,2.04-1.647,3.443-4.641,3.443h-5.128Zm4.94-5.2c1.478,0,2.3-.674,2.3-1.74,0-1.048-.861-1.628-2.358-1.628h-1.385v3.368Zm.225,5.24c1.46,0,2.433-.6,2.433-1.778,0-1.142-.9-1.778-2.489-1.778h-1.609v3.556Z" transform="translate(-523.459 -535.581)"/><path d="M729.45,546.23h1.4V537.7h-1.4v-1.89H734.6v1.89h-1.628v8.552h3.387v-1.74h2.04v3.611H729.45Z" transform="translate(-538.278 -535.581)"/><path d="M753.328,546.23h1.4V537.7h-1.4v-1.89h9.188v3.518H760.5v-1.647h-3.649v3.294h3.724v1.8h-3.724v3.481h3.668V544.6h2.021v3.518h-9.207Z" transform="translate(-551.902 -535.581)"/></g><g transform="translate(216.451 22.66)"><path d="M788.318,541.664a6.305,6.305,0,0,1,6.475-6.381c2.863,0,4.772,1.5,4.772,2.975a1.388,1.388,0,0,1-1.348,1.516,1.3,1.3,0,0,1-1.422-1.329,1.533,1.533,0,0,1,.131-.636,3.6,3.6,0,0,0-2.19-.562,4.419,4.419,0,0,0,.094,8.833,4.724,4.724,0,0,0,3.537-1.628l1.4,1.459a6.616,6.616,0,0,1-4.94,2.133A6.145,6.145,0,0,1,788.318,541.664Z" transform="translate(-788.318 -535.283)"/><path d="M818.515,546.23h1.5V537.7h-1.5v-1.89h5.109v1.89h-1.5v8.534h1.5v1.89h-5.109Z" transform="translate(-805.548 -535.581)"/><path d="M835.775,546.23h1.534v-8.59h-2.283v1.947h-2v-3.78H843.71v3.78h-2V537.64h-2.283v8.59h1.535v1.89h-5.184Z" transform="translate(-813.827 -535.581)"/><path d="M862.263,546.23h1.553v-2.807l-3.5-5.727h-1.236v-1.89h4.66v1.89h-1.086l2.264,3.948,2.246-3.948h-1.16v-1.89h4.66v1.89H869.43l-3.5,5.727v2.807h1.553v1.89h-5.221Z" transform="translate(-828.694 -535.581)"/></g><path d="M812.6,497.115c0,1.495,1.52,2.236,2.764,2.236s2.014-.727,2.014-2.236v-4.663h-1.17v-1.5H819l0,6.159c0,2.547-1.5,3.76-3.642,3.76-2.177,0-4.394-1.2-4.394-3.718" transform="translate(-584.792 -487.33)"/><path d="M812.6,497.115c0,1.495,1.52,2.236,2.764,2.236s2.014-.727,2.014-2.236v-4.663h-1.17v-1.5H819l0,6.159c0,2.547-1.5,3.76-3.642,3.76-2.177,0-4.394-1.2-4.394-3.718" transform="translate(-584.792 -487.33)"/><path d="M807.33,493.69v4.986c0,1.509-1.485,2.233-2.743,2.233v1.526c2.146,0,4.371-1.214,4.371-3.759V493.69Z" transform="translate(-581.15 -488.89)"/><path d="M807.33,493.69v4.986c0,1.509-1.485,2.233-2.743,2.233v1.526c2.146,0,4.371-1.214,4.371-3.759V493.69Z" transform="translate(-581.15 -488.89)"/><path d="M860.628,502.3v1.348c0,1.51-.755,2.175-2.014,2.175v1.525a3.328,3.328,0,0,0,3.642-3.7V502.36Z" transform="translate(-611.977 -493.803)"/><path d="M860.628,502.3v1.348c0,1.51-.755,2.175-2.014,2.175v1.525a3.328,3.328,0,0,0,3.642-3.7V502.36Z" transform="translate(-611.977 -493.803)"/><path d="M863.308,495.592a5,5,0,1,1,4.959,5.048,4.889,4.889,0,0,1-4.959-5.048m8.26,0a3.271,3.271,0,1,0-3.256,3.494,3.273,3.273,0,0,0,3.256-3.494" transform="translate(-614.655 -487.095)"/><path d="M863.308,495.592a5,5,0,1,1,4.959,5.048A4.889,4.889,0,0,1,863.308,495.592Zm8.26,0a3.271,3.271,0,1,0-3.256,3.494A3.273,3.273,0,0,0,871.568,495.592Z" transform="translate(-614.655 -487.095)"/><path d="M843.09,497.115v-6.159h-2.8v1.5h1.17v4.663c0,1.509-1.485,2.236-2.744,2.236a3.205,3.205,0,0,1-1.637-.387.959.959,0,0,0,.016-.525,1.1,1.1,0,1,0-2.145.5c.159,1.135,1.826,1.934,3.767,1.934a4.767,4.767,0,0,0,3.434-1.325,3.459,3.459,0,0,0,2.952,1.325v-1.524c-1.259,0-2.013-.727-2.013-2.236" transform="translate(-598.465 -487.33)"/><path d="M843.09,497.115v-6.159h-2.8v1.5h1.17v4.663c0,1.509-1.485,2.236-2.744,2.236a3.205,3.205,0,0,1-1.637-.387.959.959,0,0,0,.016-.525,1.1,1.1,0,1,0-2.145.5c.159,1.135,1.826,1.934,3.767,1.934a4.767,4.767,0,0,0,3.434-1.325,3.459,3.459,0,0,0,2.952,1.325v-1.524C843.843,499.351,843.09,498.624,843.09,497.115Z" transform="translate(-598.465 -487.33)"/><path class="g" d="M823.436,519.76a1.221,1.221,0,0,1-.383-.89,1.239,1.239,0,0,1,.378-.88,1.28,1.28,0,0,1,.877-.34,1.3,1.3,0,0,1,.883.34,1.242,1.242,0,0,1,.373.9,1.223,1.223,0,0,1-.373.872,1.3,1.3,0,0,1-.883.345,1.27,1.27,0,0,1-.872-.344" transform="translate(-591.686 -502.562)"/><path d="M823.436,519.76a1.221,1.221,0,0,1-.383-.89,1.239,1.239,0,0,1,.378-.88,1.28,1.28,0,0,1,.877-.34,1.3,1.3,0,0,1,.883.34,1.242,1.242,0,0,1,.373.9,1.223,1.223,0,0,1-.373.872,1.3,1.3,0,0,1-.883.345A1.27,1.27,0,0,1,823.436,519.76Z" transform="translate(-591.686 -502.562)"/><path class="g" d="M816.1,519.76a1.219,1.219,0,0,1-.383-.89,1.237,1.237,0,0,1,.378-.88,1.282,1.282,0,0,1,.877-.34,1.3,1.3,0,0,1,.883.34,1.235,1.235,0,0,1,.372.9,1.217,1.217,0,0,1-.372.872,1.3,1.3,0,0,1-.883.345,1.271,1.271,0,0,1-.872-.344" transform="translate(-587.503 -502.562)"/><path d="M816.1,519.76a1.219,1.219,0,0,1-.383-.89,1.237,1.237,0,0,1,.378-.88,1.282,1.282,0,0,1,.877-.34,1.3,1.3,0,0,1,.883.34,1.235,1.235,0,0,1,.372.9,1.217,1.217,0,0,1-.372.872,1.3,1.3,0,0,1-.883.345A1.271,1.271,0,0,1,816.1,519.76Z" transform="translate(-587.503 -502.562)"/><path class="g" d="M809.836,484.622a1.218,1.218,0,0,1-.005-1.769,1.274,1.274,0,0,1,.877-.34,1.29,1.29,0,0,1,.883.34,1.233,1.233,0,0,1,0,1.768,1.3,1.3,0,0,1-.883.345,1.27,1.27,0,0,1-.872-.344" transform="translate(-583.926 -482.513)"/><path d="M809.836,484.622a1.218,1.218,0,0,1-.005-1.769,1.274,1.274,0,0,1,.877-.34,1.29,1.29,0,0,1,.883.34,1.233,1.233,0,0,1,0,1.768,1.3,1.3,0,0,1-.883.345A1.27,1.27,0,0,1,809.836,484.622Z" transform="translate(-583.926 -482.513)"/><path d="M770.167,496.82v-6.165h-1.672v1.065a5.07,5.07,0,0,0-8.317,3.872,4.817,4.817,0,0,0,3.264,4.781,4.945,4.945,0,0,0,1.618.276c2.022,0,3-.833,3.164-2.014a1.133,1.133,0,0,0-.931-1.406,1.11,1.11,0,0,0-1.3.882,1.7,1.7,0,0,0,.063.739s-.064.21-1.149.21a3.483,3.483,0,1,1,3.589-3.467v1.317a3.373,3.373,0,0,0,3.671,3.731v-1.524c-1.244,0-2-.8-2-2.3" transform="translate(-555.81 -487.096)"/><path d="M770.167,496.82v-6.165h-1.672v1.065a5.07,5.07,0,0,0-8.317,3.872,4.817,4.817,0,0,0,3.264,4.781,4.945,4.945,0,0,0,1.618.276c2.022,0,3-.833,3.164-2.014a1.133,1.133,0,0,0-.931-1.406,1.11,1.11,0,0,0-1.3.882,1.7,1.7,0,0,0,.063.739s-.064.21-1.149.21a3.483,3.483,0,1,1,3.589-3.467v1.317a3.373,3.373,0,0,0,3.671,3.731v-1.524C770.922,499.117,770.167,498.317,770.167,496.82Z" transform="translate(-555.81 -487.096)"/><path class="g" d="M772.43,484.622a1.222,1.222,0,0,1-.383-.89,1.235,1.235,0,0,1,.378-.879,1.275,1.275,0,0,1,.877-.34,1.29,1.29,0,0,1,.883.34,1.23,1.23,0,0,1,.372.894,1.217,1.217,0,0,1-.372.873,1.3,1.3,0,0,1-.883.345,1.271,1.271,0,0,1-.872-.344" transform="translate(-562.583 -482.513)"/><path d="M772.43,484.622a1.222,1.222,0,0,1-.383-.89,1.235,1.235,0,0,1,.378-.879,1.275,1.275,0,0,1,.877-.34,1.29,1.29,0,0,1,.883.34,1.23,1.23,0,0,1,.372.894,1.217,1.217,0,0,1-.372.873,1.3,1.3,0,0,1-.883.345A1.271,1.271,0,0,1,772.43,484.622Z" transform="translate(-562.583 -482.513)"/><path class="g" d="M765.1,484.622a1.218,1.218,0,0,1-.005-1.769,1.274,1.274,0,0,1,.877-.34,1.29,1.29,0,0,1,.883.34,1.233,1.233,0,0,1,0,1.768,1.3,1.3,0,0,1-.883.345,1.27,1.27,0,0,1-.872-.344" transform="translate(-558.399 -482.513)"/><path d="M765.1,484.622a1.218,1.218,0,0,1-.005-1.769,1.274,1.274,0,0,1,.877-.34,1.29,1.29,0,0,1,.883.34,1.233,1.233,0,0,1,0,1.768,1.3,1.3,0,0,1-.883.345A1.27,1.27,0,0,1,765.1,484.622Z" transform="translate(-558.399 -482.513)"/><rect width="7.083" height="1.525" transform="translate(216.355 12.035)"/><rect width="7.083" height="1.525" transform="translate(216.355 12.035)"/><path d="M742.583,496.355V485.468h-2.621V486.9h.924v9.452h-1.061v1.4h3.77v-1.4Z" transform="translate(-544.197 -484.199)"/><path d="M742.583,496.355V485.468h-2.621V486.9h.924v9.452h-1.061v1.4h3.77v-1.4Z" transform="translate(-544.197 -484.199)"/><path d="M595.55,495.628a5,5,0,1,1,4.958,5.049,4.89,4.89,0,0,1-4.958-5.049m8.26,0a3.272,3.272,0,1,0-3.256,3.494,3.272,3.272,0,0,0,3.256-3.494" transform="translate(-461.876 -487.115)"/><path d="M595.55,495.628a5,5,0,1,1,4.958,5.049A4.89,4.89,0,0,1,595.55,495.628Zm8.26,0a3.272,3.272,0,1,0-3.256,3.494A3.272,3.272,0,0,0,603.81,495.628Z" transform="translate(-461.876 -487.115)"/><path d="M624.644,496.441v1.5h1.169v5.932a2.252,2.252,0,0,1-.637,1.753v1.63c1.4-.195,2.265-1.429,2.265-3.382v-7.428Z" transform="translate(-478.476 -490.46)"/><path d="M624.644,496.441v1.5h1.169v5.932a2.252,2.252,0,0,1-.637,1.753v1.63c1.4-.195,2.265-1.429,2.265-3.382v-7.428Z" transform="translate(-478.476 -490.46)"/><path d="M713.51,497.275h0v-6.066h-1.628v6.066c0,1.509-.755,2.235-2.013,2.235v1.525a3.993,3.993,0,0,1,5.657,0V499.51c-1.258,0-2.013-.726-2.013-2.235" transform="translate(-527.102 -487.475)"/><path d="M713.51,497.275h0v-6.066h-1.628v6.066c0,1.509-.755,2.235-2.013,2.235v1.525a3.993,3.993,0,0,1,5.657,0V499.51C714.265,499.51,713.51,498.784,713.51,497.275Z" transform="translate(-527.102 -487.475)"/><path d="M687.1,497.275v-6.066h-1.628v6.066h0c0,1.509-.755,2.235-2.013,2.235v1.525a3.993,3.993,0,0,1,5.658,0V499.51c-1.257,0-2.013-.726-2.013-2.235" transform="translate(-512.033 -487.475)"/><path d="M687.1,497.275v-6.066h-1.628v6.066h0c0,1.509-.755,2.235-2.013,2.235v1.525a3.993,3.993,0,0,1,5.658,0V499.51C687.854,499.51,687.1,498.784,687.1,497.275Z" transform="translate(-512.033 -487.475)"/><path d="M727.342,496.234c1.258,0,2.013-.724,2.013-2.236v-7.035h0v-1.494h2.555V486.9h-.93V494c0,2.547-1.5,3.762-3.642,3.762" transform="translate(-537.075 -484.2)"/><path d="M727.342,496.234c1.258,0,2.013-.724,2.013-2.236v-7.035h0v-1.494h2.555V486.9h-.93V494c0,2.547-1.5,3.762-3.642,3.762" transform="translate(-537.075 -484.2)"/><path d="M640.339,496.234c-1.258,0-2.013-.724-2.013-2.236v-7.035h.785v-1.494H636.7V494c0,2.547,1.495,3.762,3.641,3.762" transform="translate(-485.354 -484.2)"/><path d="M640.339,496.234c-1.258,0-2.013-.724-2.013-2.236v-7.035h.785v-1.494H636.7V494c0,2.547,1.495,3.762,3.641,3.762" transform="translate(-485.354 -484.2)"/><path d="M565.825,496.855V490.69h-1.673v1.065a5.07,5.07,0,0,0-8.316,3.872,4.816,4.816,0,0,0,3.264,4.78,4.93,4.93,0,0,0,1.618.277c2.022,0,3-.833,3.164-2.014a1.133,1.133,0,0,0-.932-1.406,1.111,1.111,0,0,0-1.3.882,1.694,1.694,0,0,0,.064.739s-.065.21-1.15.21a3.484,3.484,0,1,1,3.589-3.467v1.317a3.373,3.373,0,0,0,3.672,3.731v-1.524c-1.244,0-2-.8-2-2.3" transform="translate(-439.215 -487.116)"/><path d="M565.825,496.855V490.69h-1.673v1.065a5.07,5.07,0,0,0-8.316,3.872,4.816,4.816,0,0,0,3.264,4.78,4.93,4.93,0,0,0,1.618.277c2.022,0,3-.833,3.164-2.014a1.133,1.133,0,0,0-.932-1.406,1.111,1.111,0,0,0-1.3.882,1.694,1.694,0,0,0,.064.739s-.065.21-1.15.21a3.484,3.484,0,1,1,3.589-3.467v1.317a3.373,3.373,0,0,0,3.672,3.731v-1.524C566.58,499.152,565.825,498.352,565.825,496.855Z" transform="translate(-439.215 -487.116)"/><path d="M621.852,515.929c-.74.389-.887-.038-.887-.038a.965.965,0,0,0,.014-.526,1.1,1.1,0,1,0-2.144.5c.158,1.134,1.937,2.157,3.627,1.525" transform="translate(-475.153 -500.767)"/><path d="M621.852,515.929c-.74.389-.887-.038-.887-.038a.965.965,0,0,0,.014-.526,1.1,1.1,0,1,0-2.144.5c.158,1.134,1.937,2.157,3.627,1.525" transform="translate(-475.153 -500.767)"/><path class="g" d="M608.64,484.622a1.218,1.218,0,0,1-.005-1.769,1.273,1.273,0,0,1,.877-.34,1.291,1.291,0,0,1,.883.34,1.233,1.233,0,0,1,0,1.768,1.3,1.3,0,0,1-.883.345,1.27,1.27,0,0,1-.872-.344" transform="translate(-469.126 -482.513)"/><path d="M608.64,484.622a1.218,1.218,0,0,1-.005-1.769,1.273,1.273,0,0,1,.877-.34,1.291,1.291,0,0,1,.883.34,1.233,1.233,0,0,1,0,1.768,1.3,1.3,0,0,1-.883.345A1.27,1.27,0,0,1,608.64,484.622Z" transform="translate(-469.126 -482.513)"/><path class="g" d="M601.309,484.622a1.219,1.219,0,0,1-.005-1.769,1.275,1.275,0,0,1,.877-.34,1.29,1.29,0,0,1,.883.34,1.229,1.229,0,0,1,.372.894,1.216,1.216,0,0,1-.372.873,1.3,1.3,0,0,1-.883.345,1.271,1.271,0,0,1-.872-.344" transform="translate(-464.943 -482.513)"/><path d="M601.309,484.622a1.219,1.219,0,0,1-.005-1.769,1.275,1.275,0,0,1,.877-.34,1.29,1.29,0,0,1,.883.34,1.229,1.229,0,0,1,.372.894,1.216,1.216,0,0,1-.372.873,1.3,1.3,0,0,1-.883.345A1.271,1.271,0,0,1,601.309,484.622Z" transform="translate(-464.943 -482.513)"/><path class="g" d="M568.764,484.622a1.223,1.223,0,0,1-.383-.89,1.236,1.236,0,0,1,.378-.879,1.274,1.274,0,0,1,.877-.34,1.29,1.29,0,0,1,.883.34,1.237,1.237,0,0,1,.373.894,1.225,1.225,0,0,1-.373.873,1.3,1.3,0,0,1-.883.345,1.27,1.27,0,0,1-.872-.344" transform="translate(-446.373 -482.513)"/><path d="M568.764,484.622a1.223,1.223,0,0,1-.383-.89,1.236,1.236,0,0,1,.378-.879,1.274,1.274,0,0,1,.877-.34,1.29,1.29,0,0,1,.883.34,1.237,1.237,0,0,1,.373.894,1.225,1.225,0,0,1-.373.873,1.3,1.3,0,0,1-.883.345A1.27,1.27,0,0,1,568.764,484.622Z" transform="translate(-446.373 -482.513)"/><path class="g" d="M561.433,484.622a1.221,1.221,0,0,1-.383-.89,1.234,1.234,0,0,1,.378-.879,1.275,1.275,0,0,1,.877-.34,1.29,1.29,0,0,1,.883.34,1.235,1.235,0,0,1,.373.894,1.223,1.223,0,0,1-.373.873,1.3,1.3,0,0,1-.883.345,1.271,1.271,0,0,1-.872-.344" transform="translate(-442.19 -482.513)"/><path d="M561.433,484.622a1.221,1.221,0,0,1-.383-.89,1.234,1.234,0,0,1,.378-.879,1.275,1.275,0,0,1,.877-.34,1.29,1.29,0,0,1,.883.34,1.235,1.235,0,0,1,.373.894,1.223,1.223,0,0,1-.373.873,1.3,1.3,0,0,1-.883.345A1.271,1.271,0,0,1,561.433,484.622Z" transform="translate(-442.19 -482.513)"/><path class="g" d="M700.482,484.622a1.218,1.218,0,0,1-.005-1.769,1.274,1.274,0,0,1,.877-.34,1.29,1.29,0,0,1,.883.34,1.234,1.234,0,0,1,0,1.768,1.3,1.3,0,0,1-.883.345,1.271,1.271,0,0,1-.872-.344" transform="translate(-521.53 -482.513)"/><path d="M700.482,484.622a1.218,1.218,0,0,1-.005-1.769,1.274,1.274,0,0,1,.877-.34,1.29,1.29,0,0,1,.883.34,1.234,1.234,0,0,1,0,1.768,1.3,1.3,0,0,1-.883.345A1.271,1.271,0,0,1,700.482,484.622Z" transform="translate(-521.53 -482.513)"/><path class="g" d="M708.056,484.622a1.221,1.221,0,0,1-.383-.89,1.234,1.234,0,0,1,.378-.879,1.275,1.275,0,0,1,.877-.34,1.291,1.291,0,0,1,.883.34,1.236,1.236,0,0,1,.373.894,1.224,1.224,0,0,1-.373.873,1.3,1.3,0,0,1-.883.345,1.271,1.271,0,0,1-.872-.344" transform="translate(-525.852 -482.513)"/><path d="M708.056,484.622a1.221,1.221,0,0,1-.383-.89,1.234,1.234,0,0,1,.378-.879,1.275,1.275,0,0,1,.877-.34,1.291,1.291,0,0,1,.883.34,1.236,1.236,0,0,1,.373.894,1.224,1.224,0,0,1-.373.873,1.3,1.3,0,0,1-.883.345A1.271,1.271,0,0,1,708.056,484.622Z" transform="translate(-525.852 -482.513)"/><path class="g" d="M692.909,484.622a1.218,1.218,0,0,1,0-1.769,1.273,1.273,0,0,1,.877-.34,1.292,1.292,0,0,1,.883.34,1.237,1.237,0,0,1,.373.894,1.224,1.224,0,0,1-.373.873,1.3,1.3,0,0,1-.883.345,1.271,1.271,0,0,1-.872-.344" transform="translate(-517.209 -482.513)"/><path d="M692.909,484.622a1.218,1.218,0,0,1,0-1.769,1.273,1.273,0,0,1,.877-.34,1.292,1.292,0,0,1,.883.34,1.237,1.237,0,0,1,.373.894,1.224,1.224,0,0,1-.373.873,1.3,1.3,0,0,1-.883.345A1.271,1.271,0,0,1,692.909,484.622Z" transform="translate(-517.209 -482.513)"/><rect width="1.848" height="1.525" transform="translate(188.42 12.035)"/><rect width="1.848" height="1.525" transform="translate(188.42 12.035)"/><rect width="16.437" height="1.525" transform="translate(154.984 12.035)"/><rect width="16.437" height="1.525" transform="translate(154.984 12.035)"/><path d="M704.986,501.172c-1.244,0-2-.8-2-2.294v-4.755h-1.674v4.846a3.372,3.372,0,0,0,3.671,3.73" transform="translate(-522.223 -489.137)"/><path d="M704.986,501.172c-1.244,0-2-.8-2-2.294v-4.755h-1.674v4.846a3.372,3.372,0,0,0,3.671,3.73" transform="translate(-522.223 -489.137)"/><path d="M696.63,501.172c1.244,0,2-.8,2-2.294v-4.755H700.3v4.846a3.372,3.372,0,0,1-3.672,3.73" transform="translate(-519.551 -489.137)"/><path d="M696.63,501.172c1.244,0,2-.8,2-2.294v-4.755H700.3v4.846a3.372,3.372,0,0,1-3.672,3.73" transform="translate(-519.551 -489.137)"/><rect width="10.024" height="1.525" transform="translate(128.608 12.035)"/><rect width="10.024" height="1.525" transform="translate(128.608 12.035)"/><path d="M390.37,499.383c1.257,0,2.013-.726,2.013-2.236v-4.663h-1.169V490.99h2.8l0,6.157c0,2.547-1.5,3.76-3.642,3.76" transform="translate(-344.802 -487.35)"/><path d="M390.37,499.383c1.257,0,2.013-.726,2.013-2.236v-4.663h-1.169V490.99h2.8l0,6.157c0,2.547-1.5,3.76-3.642,3.76" transform="translate(-344.802 -487.35)"/><path d="M491.451,502.331v1.348c0,1.51-.755,2.175-2.014,2.175v1.527a3.33,3.33,0,0,0,3.642-3.7v-1.287Z" transform="translate(-401.329 -493.821)"/><path d="M491.451,502.331v1.348c0,1.51-.755,2.175-2.014,2.175v1.527a3.33,3.33,0,0,0,3.642-3.7v-1.287Z" transform="translate(-401.329 -493.821)"/><path d="M396.671,502.331v1.348c0,1.51.755,2.175,2.014,2.175v1.527a3.329,3.329,0,0,1-3.642-3.7v-1.287Z" transform="translate(-347.469 -493.821)"/><path d="M396.671,502.331v1.348c0,1.51.755,2.175,2.014,2.175v1.527a3.329,3.329,0,0,1-3.642-3.7v-1.287Z" transform="translate(-347.469 -493.821)"/><path d="M515.232,502.331v1.348c0,1.51.755,2.175,2.014,2.175v1.527a3.33,3.33,0,0,1-3.642-3.7v-1.287Z" transform="translate(-415.118 -493.821)"/><path d="M515.232,502.331v1.348c0,1.51.755,2.175,2.014,2.175v1.527a3.33,3.33,0,0,1-3.642-3.7v-1.287Z" transform="translate(-415.118 -493.821)"/><path d="M494.13,495.623a5,5,0,1,1,4.96,5.05,4.889,4.889,0,0,1-4.96-5.05m8.261,0a3.272,3.272,0,1,0-3.257,3.494,3.272,3.272,0,0,0,3.257-3.494" transform="translate(-404.007 -487.113)"/><path d="M494.13,495.623a5,5,0,1,1,4.96,5.05A4.889,4.889,0,0,1,494.13,495.623Zm8.261,0a3.272,3.272,0,1,0-3.257,3.494A3.272,3.272,0,0,0,502.391,495.623Z" transform="translate(-404.007 -487.113)"/><path d="M326.924,502.331v1.348c0,1.51-.755,2.175-2.014,2.175v1.527a3.329,3.329,0,0,0,3.642-3.7v-1.287Z" transform="translate(-307.452 -493.821)"/><path d="M326.924,502.331v1.348c0,1.51-.755,2.175-2.014,2.175v1.527a3.329,3.329,0,0,0,3.642-3.7v-1.287Z" transform="translate(-307.452 -493.821)"/><path d="M329.6,495.623a5,5,0,1,1,4.959,5.05,4.889,4.889,0,0,1-4.959-5.05m8.26,0a3.272,3.272,0,1,0-3.256,3.494,3.272,3.272,0,0,0,3.256-3.494" transform="translate(-310.13 -487.113)"/><path d="M329.6,495.623a5,5,0,1,1,4.959,5.05A4.889,4.889,0,0,1,329.6,495.623Zm8.26,0a3.272,3.272,0,1,0-3.256,3.494A3.272,3.272,0,0,0,337.863,495.623Z" transform="translate(-310.13 -487.113)"/><path d="M374.844,497.147v-6.159h-2.8v1.5h1.17v4.663c0,1.509-1.485,2.236-2.744,2.236a3.2,3.2,0,0,1-1.637-.387.956.956,0,0,0,.015-.526,1.1,1.1,0,1,0-2.145.5c.159,1.134,1.826,1.934,3.766,1.934a4.77,4.77,0,0,0,3.434-1.325,3.459,3.459,0,0,0,2.952,1.325v-1.524c-1.259,0-2.013-.727-2.013-2.236" transform="translate(-331.289 -487.349)"/><path d="M374.844,497.147v-6.159h-2.8v1.5h1.17v4.663c0,1.509-1.485,2.236-2.744,2.236a3.2,3.2,0,0,1-1.637-.387.956.956,0,0,0,.015-.526,1.1,1.1,0,1,0-2.145.5c.159,1.134,1.826,1.934,3.766,1.934a4.77,4.77,0,0,0,3.434-1.325,3.459,3.459,0,0,0,2.952,1.325v-1.524C375.6,499.383,374.844,498.656,374.844,497.147Z" transform="translate(-331.289 -487.349)"/><path d="M537.326,496.35V485.462h-2.758V486.9h1.061v9.452h-1.061v1.4h3.77v-1.4Z" transform="translate(-427.08 -484.196)"/><path d="M537.326,496.35V485.462h-2.758V486.9h1.061v9.452h-1.061v1.4h3.77v-1.4Z" transform="translate(-427.08 -484.196)"/><path d="M357.325,496.35V485.462h-2.758V486.9h1.061v9.452h-1.061v1.4h3.77v-1.4Z" transform="translate(-324.374 -484.196)"/><path d="M357.325,496.35V485.462h-2.758V486.9h1.061v9.452h-1.061v1.4h3.77v-1.4Z" transform="translate(-324.374 -484.196)"/><path d="M479.908,497.269h0V491.2h-1.628v6.066c0,1.509-.755,2.236-2.013,2.236v1.524a3.52,3.52,0,0,0,2.829-1.174,3.522,3.522,0,0,0,2.829,1.174v-1.524c-1.258,0-2.013-.727-2.013-2.236" transform="translate(-393.812 -487.471)"/><path d="M479.908,497.269h0V491.2h-1.628v6.066c0,1.509-.755,2.236-2.013,2.236v1.524a3.52,3.52,0,0,0,2.829-1.174,3.522,3.522,0,0,0,2.829,1.174v-1.524C480.663,499.505,479.908,498.778,479.908,497.269Z" transform="translate(-393.812 -487.471)"/><path d="M453.5,497.269V491.2h-1.628v6.066h0c0,1.509-.755,2.236-2.013,2.236v1.524a3.522,3.522,0,0,0,2.829-1.174,3.521,3.521,0,0,0,2.829,1.174v-1.524c-1.257,0-2.013-.727-2.013-2.236" transform="translate(-378.742 -487.471)"/><path d="M453.5,497.269V491.2h-1.628v6.066h0c0,1.509-.755,2.236-2.013,2.236v1.524a3.522,3.522,0,0,0,2.829-1.174,3.521,3.521,0,0,0,2.829,1.174v-1.524C454.252,499.505,453.5,498.778,453.5,497.269Z" transform="translate(-378.742 -487.471)"/><path d="M522.085,496.229c1.258,0,2.013-.725,2.013-2.235v-7.036h.005v-1.5h2.689v1.5h-1.066v7.036c0,2.546-1.5,3.76-3.641,3.76" transform="translate(-419.957 -484.196)"/><path d="M522.085,496.229c1.258,0,2.013-.725,2.013-2.235v-7.036h.005v-1.5h2.689v1.5h-1.066v7.036c0,2.546-1.5,3.76-3.641,3.76" transform="translate(-419.957 -484.196)"/><path d="M294.615,496.851v-6.165h-1.673v1.064a5.07,5.07,0,0,0-8.316,3.872,4.815,4.815,0,0,0,3.264,4.78,4.933,4.933,0,0,0,1.618.278c2.022,0,3-.834,3.164-2.015a1.133,1.133,0,0,0-.932-1.406,1.111,1.111,0,0,0-1.3.882,1.694,1.694,0,0,0,.064.739s-.065.21-1.15.21a3.483,3.483,0,1,1,3.589-3.467v1.317a3.373,3.373,0,0,0,3.672,3.731v-1.524c-1.244,0-2-.8-2-2.295" transform="translate(-284.466 -487.112)"/><path d="M294.615,496.851v-6.165h-1.673v1.064a5.07,5.07,0,0,0-8.316,3.872,4.815,4.815,0,0,0,3.264,4.78,4.933,4.933,0,0,0,1.618.278c2.022,0,3-.834,3.164-2.015a1.133,1.133,0,0,0-.932-1.406,1.111,1.111,0,0,0-1.3.882,1.694,1.694,0,0,0,.064.739s-.065.21-1.15.21a3.483,3.483,0,1,1,3.589-3.467v1.317a3.373,3.373,0,0,0,3.672,3.731v-1.524C295.37,499.146,294.615,498.346,294.615,496.851Z" transform="translate(-284.466 -487.112)"/><path class="g" d="M296.69,484.622a1.222,1.222,0,0,1-.383-.89,1.235,1.235,0,0,1,.378-.879,1.274,1.274,0,0,1,.877-.34,1.292,1.292,0,0,1,.883.34,1.233,1.233,0,0,1,0,1.768,1.3,1.3,0,0,1-.883.345,1.27,1.27,0,0,1-.872-.344" transform="translate(-291.131 -482.513)"/><path d="M296.69,484.622a1.222,1.222,0,0,1-.383-.89,1.235,1.235,0,0,1,.378-.879,1.274,1.274,0,0,1,.877-.34,1.292,1.292,0,0,1,.883.34,1.233,1.233,0,0,1,0,1.768,1.3,1.3,0,0,1-.883.345A1.27,1.27,0,0,1,296.69,484.622Z" transform="translate(-291.131 -482.513)"/><path class="g" d="M289.358,484.622a1.224,1.224,0,0,1-.383-.89,1.236,1.236,0,0,1,.378-.879,1.275,1.275,0,0,1,.877-.34,1.29,1.29,0,0,1,.883.34,1.237,1.237,0,0,1,.373.894,1.225,1.225,0,0,1-.373.873,1.3,1.3,0,0,1-.883.345,1.271,1.271,0,0,1-.872-.344" transform="translate(-286.948 -482.513)"/><path d="M289.358,484.622a1.224,1.224,0,0,1-.383-.89,1.236,1.236,0,0,1,.378-.879,1.275,1.275,0,0,1,.877-.34,1.29,1.29,0,0,1,.883.34,1.237,1.237,0,0,1,.373.894,1.225,1.225,0,0,1-.373.873,1.3,1.3,0,0,1-.883.345A1.271,1.271,0,0,1,289.358,484.622Z" transform="translate(-286.948 -482.513)"/><path class="g" d="M398.2,484.622a1.219,1.219,0,0,1-.005-1.769,1.275,1.275,0,0,1,.877-.34,1.291,1.291,0,0,1,.883.34,1.237,1.237,0,0,1,.373.894,1.224,1.224,0,0,1-.373.873,1.3,1.3,0,0,1-.883.345,1.271,1.271,0,0,1-.872-.344" transform="translate(-349.054 -482.513)"/><path d="M398.2,484.622a1.219,1.219,0,0,1-.005-1.769,1.275,1.275,0,0,1,.877-.34,1.291,1.291,0,0,1,.883.34,1.237,1.237,0,0,1,.373.894,1.224,1.224,0,0,1-.373.873,1.3,1.3,0,0,1-.883.345A1.271,1.271,0,0,1,398.2,484.622Z" transform="translate(-349.054 -482.513)"/><path class="g" d="M390.753,484.622a1.222,1.222,0,0,1-.383-.89,1.234,1.234,0,0,1,.378-.879,1.275,1.275,0,0,1,.877-.34,1.29,1.29,0,0,1,.883.34,1.235,1.235,0,0,1,.373.894,1.223,1.223,0,0,1-.373.873,1.3,1.3,0,0,1-.883.345,1.271,1.271,0,0,1-.872-.344" transform="translate(-344.802 -482.513)"/><path d="M390.753,484.622a1.222,1.222,0,0,1-.383-.89,1.234,1.234,0,0,1,.378-.879,1.275,1.275,0,0,1,.877-.34,1.29,1.29,0,0,1,.883.34,1.235,1.235,0,0,1,.373.894,1.223,1.223,0,0,1-.373.873,1.3,1.3,0,0,1-.883.345A1.271,1.271,0,0,1,390.753,484.622Z" transform="translate(-344.802 -482.513)"/><path d="M522.085,512.059h0v0Z" transform="translate(-419.957 -498.501)"/><path d="M522.085,512.059h0v0Z" transform="translate(-419.957 -498.501)"/><path d="M471.383,501.169c-1.244,0-2-.8-2-2.3v-4.754h-1.673v4.844a3.372,3.372,0,0,0,3.672,3.73" transform="translate(-388.933 -489.135)"/><path d="M471.383,501.169c-1.244,0-2-.8-2-2.3v-4.754h-1.673v4.844a3.372,3.372,0,0,0,3.672,3.73" transform="translate(-388.933 -489.135)"/><path d="M463.028,501.169c1.244,0,2-.8,2-2.3v-4.754H466.7v4.844a3.372,3.372,0,0,1-3.672,3.73" transform="translate(-386.26 -489.135)"/><path d="M463.028,501.169c1.244,0,2-.8,2-2.3v-4.754H466.7v4.844a3.372,3.372,0,0,1-3.672,3.73" transform="translate(-386.26 -489.135)"/><rect width="2.188" height="1.524" transform="translate(51.216 12.034)"/><rect width="2.188" height="1.524" transform="translate(51.216 12.034)"/><rect width="17.705" height="1.527" transform="translate(53.404 12.034)"/><rect width="17.705" height="1.527" transform="translate(53.404 12.034)"/><rect width="5.311" height="1.527" transform="translate(12.147 12.034)"/><rect width="5.311" height="1.527" transform="translate(12.147 12.034)"/></g></g></svg>